<svg xmlns="http://www.w3.org/2000/svg" xmlns:xlink="http://www.w3.org/1999/xlink" viewBox="0,0,256,256" width="64px" height="64px" fill-rule="nonzero"><g fill="#ed0000" fill-rule="nonzero" stroke="none" stroke-width="1" stroke-linecap="butt" stroke-linejoin="miter" stroke-miterlimit="10" stroke-dasharray="" stroke-dashoffset="0" font-family="none" font-weight="none" font-size="none" text-anchor="none" style="mix-blend-mode: normal"><g transform="scale(4,4)"><path d="M26.9375,4c-0.894,0 -1.73369,0.39408 -2.30469,1.08008c-0.058,0.069 -0.10558,0.14556 -0.14258,0.22656l-2.13281,4.69336h-11.35742c-1.654,0 -3,1.346 -3,3v6c0,1.654 1.346,3 3,3h2v35c0,1.654 1.346,3 3,3h32c1.654,0 3,-1.346 3,-3v-35h2c1.654,0 3,-1.346 3,-3v-6c0,-1.654 -1.346,-3 -3,-3h-11.35547l-2.13281,-4.69336c-0.037,-0.081 -0.08558,-0.15856 -0.14258,-0.22656c-0.572,-0.686 -1.41169,-1.08008 -2.30469,-1.08008zM26.9375,6h10.125c0.26,0 0.50741,0.10034 0.69141,0.27734l1.69336,3.72266h-14.89453l1.69336,-3.72266c0.185,-0.177 0.43141,-0.27734 0.69141,-0.27734zM11,12h42c0.551,0 1,0.448 1,1v6c0,0.552 -0.449,1 -1,1h-42c-0.551,0 -1,-0.448 -1,-1v-6c0,-0.552 0.449,-1 1,-1zM14,14c-0.552,0 -1,0.447 -1,1v2c0,0.553 0.448,1 1,1c0.552,0 1,-0.447 1,-1v-2c0,-0.553 -0.448,-1 -1,-1zM19,14c-0.552,0 -1,0.447 -1,1v2c0,0.553 0.448,1 1,1c0.552,0 1,-0.447 1,-1v-2c0,-0.553 -0.448,-1 -1,-1zM24,14c-0.552,0 -1,0.447 -1,1v2c0,0.553 0.448,1 1,1c0.552,0 1,-0.447 1,-1v-2c0,-0.553 -0.448,-1 -1,-1zM29,14c-0.552,0 -1,0.447 -1,1v2c0,0.553 0.448,1 1,1c0.552,0 1,-0.447 1,-1v-2c0,-0.553 -0.448,-1 -1,-1zM35,14c-0.552,0 -1,0.447 -1,1v2c0,0.553 0.448,1 1,1c0.552,0 1,-0.447 1,-1v-2c0,-0.553 -0.448,-1 -1,-1zM40,14c-0.552,0 -1,0.447 -1,1v2c0,0.553 0.448,1 1,1c0.552,0 1,-0.447 1,-1v-2c0,-0.553 -0.448,-1 -1,-1zM45,14c-0.552,0 -1,0.447 -1,1v2c0,0.553 0.448,1 1,1c0.552,0 1,-0.447 1,-1v-2c0,-0.553 -0.448,-1 -1,-1zM50,14c-0.552,0 -1,0.447 -1,1v2c0,0.553 0.448,1 1,1c0.552,0 1,-0.447 1,-1v-2c0,-0.553 -0.448,-1 -1,-1zM15,22h34v35c0,0.552 -0.449,1 -1,1h-32c-0.551,0 -1,-0.448 -1,-1v-1h23c0.552,0 1,-0.447 1,-1c0,-0.553 -0.448,-1 -1,-1h-23zM20,28c-0.552,0 -1,0.447 -1,1v12c0,0.553 0.448,1 1,1c0.552,0 1,-0.447 1,-1v-12c0,-0.553 -0.448,-1 -1,-1zM28,28c-0.552,0 -1,0.447 -1,1v20c0,0.553 0.448,1 1,1c0.552,0 1,-0.447 1,-1v-20c0,-0.553 -0.448,-1 -1,-1zM36,28c-0.552,0 -1,0.447 -1,1v20c0,0.553 0.448,1 1,1c0.552,0 1,-0.447 1,-1v-20c0,-0.553 -0.448,-1 -1,-1zM44,28c-0.552,0 -1,0.447 -1,1v4c0,0.553 0.448,1 1,1c0.552,0 1,-0.447 1,-1v-4c0,-0.553 -0.448,-1 -1,-1zM44,36c-0.552,0 -1,0.447 -1,1v12c0,0.553 0.448,1 1,1c0.552,0 1,-0.447 1,-1v-12c0,-0.553 -0.448,-1 -1,-1zM20,44c-0.552,0 -1,0.447 -1,1v4c0,0.553 0.448,1 1,1c0.552,0 1,-0.447 1,-1v-4c0,-0.553 -0.448,-1 -1,-1zM42,54c-0.552,0 -1,0.447 -1,1c0,0.553 0.448,1 1,1h4c0.552,0 1,-0.447 1,-1c0,-0.553 -0.448,-1 -1,-1z"></path></g></g></svg>